# Blender v2.67 (sub 1) OBJ File: ''
# www.blender.org
o Cylinder
v 0.000000 -0.186731 -1.000000
v 0.000000 0.186731 -1.000000
v 0.195090 -0.186731 -0.980785
v 0.195090 0.186731 -0.980785
v 0.382683 -0.186731 -0.923880
v 0.382683 0.186731 -0.923880
v 0.555570 -0.186731 -0.831470
v 0.555570 0.186731 -0.831470
v 0.707107 -0.186731 -0.707107
v 0.707107 0.186731 -0.707107
v 0.831470 -0.186731 -0.555570
v 0.831470 0.186731 -0.555570
v 0.923880 -0.186731 -0.382683
v 0.923880 0.186731 -0.382683
v 0.980785 -0.186731 -0.195090
v 0.980785 0.186731 -0.195090
v 1.000000 -0.186731 -0.000000
v 1.000000 0.186731 -0.000000
v 0.980785 -0.186731 0.195090
v 0.980785 0.186731 0.195090
v 0.923880 -0.186731 0.382683
v 0.923880 0.186731 0.382683
v 0.831470 -0.186731 0.555570
v 0.831470 0.186731 0.555570
v 0.707107 -0.186731 0.707107
v 0.707107 0.186731 0.707107
v 0.555570 -0.186731 0.831470
v 0.555570 0.186731 0.831470
v 0.382683 -0.186731 0.923880
v 0.382683 0.186731 0.923880
v 0.195090 -0.186731 0.980785
v 0.195090 0.186731 0.980785
v -0.000000 -0.186731 1.000000
v -0.000000 0.186731 1.000000
v -0.195091 -0.186731 0.980785
v -0.195091 0.186731 0.980785
v -0.382684 -0.186731 0.923879
v -0.382684 0.186731 0.923879
v -0.555571 -0.186731 0.831469
v -0.555571 0.186731 0.831469
v -0.707107 -0.186731 0.707106
v -0.707107 0.186731 0.707106
v -0.831470 -0.186731 0.555570
v -0.831470 0.186731 0.555570
v -0.923880 -0.186731 0.382683
v -0.923880 0.186731 0.382683
v -0.980785 -0.186731 0.195089
v -0.980785 0.186731 0.195089
v -1.000000 -0.186731 -0.000001
v -1.000000 0.186731 -0.000001
v -0.980785 -0.186731 -0.195091
v -0.980785 0.186731 -0.195091
v -0.923879 -0.186731 -0.382684
v -0.923879 0.186731 -0.382684
v -0.831469 -0.186731 -0.555571
v -0.831469 0.186731 -0.555571
v -0.707106 -0.186731 -0.707108
v -0.707106 0.186731 -0.707108
v -0.555569 -0.186731 -0.831470
v -0.555569 0.186731 -0.831470
v -0.382682 -0.186731 -0.923880
v -0.382682 0.186731 -0.923880
v -0.195089 -0.186731 -0.980786
v -0.195089 0.186731 -0.980786
vt 0.539037 0.805688
vt 0.537799 0.402143
vt 0.577353 0.402022
vt 0.578591 0.805567
vt 0.616147 0.401903
vt 0.617386 0.805448
vt 0.652691 0.401791
vt 0.653929 0.805336
vt 0.685579 0.401690
vt 0.686817 0.805235
vt 0.713548 0.401604
vt 0.400366 0.806020
vt 0.401604 1.209566
vt 0.368716 1.209666
vt 0.367478 0.806121
vt 0.332172 1.209779
vt 0.330934 0.806233
vt 0.293378 1.209898
vt 0.292140 0.806352
vt 0.253824 1.210019
vt 0.252586 0.806474
vt 0.215029 1.210138
vt 0.213791 0.806593
vt 0.178486 1.210250
vt 0.177248 0.806705
vt 0.145598 1.210351
vt 0.117628 0.806020
vt 0.116390 0.402475
vt 0.149278 0.402374
vt 0.150516 0.805919
vt 0.185822 0.402262
vt 0.187060 0.805807
vt 0.224616 0.402143
vt 0.225854 0.805688
vt 0.264171 0.402022
vt 0.265409 0.805567
vt 0.304203 0.805448
vt 0.302965 0.401903
vt 0.340746 0.805336
vt 0.339508 0.401791
vt 0.373635 0.805235
vt 0.372397 0.401690
vt 0.401604 0.805149
vt 0.998762 0.401604
vt 1.000000 0.805149
vt 0.965874 0.401705
vt 0.967112 0.805250
vt 0.929330 0.401817
vt 0.930568 0.805362
vt 0.890536 0.401936
vt 0.891774 0.805481
vt 0.850982 0.402057
vt 0.852220 0.805602
vt 0.812187 0.402176
vt 0.813425 0.805722
vt 0.775644 0.402288
vt 0.776882 0.805834
vt 0.742755 0.402389
vt 0.743994 0.805935
vt 0.714786 0.402475
vt 0.402842 0.806106
vt 0.401604 0.402561
vt 0.430811 0.806020
vt 0.429573 0.402475
vt 0.463699 0.805919
vt 0.000000 0.181025
vt 0.007717 0.142230
vt 0.000000 0.220579
vt 0.500243 0.805807
vt 0.499005 0.402262
vt 0.462461 0.402374
vt 0.424457 0.295917
vt 0.409321 0.259374
vt 0.446433 0.328806
vt 0.714786 0.805149
vt 0.144360 0.806806
vt 0.400366 0.401604
vt 0.716024 0.806020
vt 0.022853 0.105687
vt 0.044829 0.072798
vt 0.072798 0.044829
vt 0.105686 0.022854
vt 0.142230 0.007717
vt 0.181024 0.000000
vt 0.220579 0.000000
vt 0.259374 0.007717
vt 0.295917 0.022854
vt 0.328806 0.044829
vt 0.356775 0.072798
vt 0.378750 0.105686
vt 0.393887 0.142230
vt 0.401604 0.181025
vt 0.401604 0.220579
vt 0.393887 0.259374
vt 0.378750 0.295917
vt 0.356775 0.328806
vt 0.328806 0.356775
vt 0.295917 0.378750
vt 0.259374 0.393887
vt 0.220579 0.401604
vt 0.181025 0.401604
vt 0.142230 0.393887
vt 0.105687 0.378750
vt 0.072798 0.356775
vt 0.044829 0.328806
vt 0.022854 0.295917
vt 0.007717 0.259374
vt 0.409321 0.142230
vt 0.424457 0.105687
vt 0.446433 0.072798
vt 0.474402 0.044829
vt 0.507290 0.022854
vt 0.543834 0.007717
vt 0.582629 0.000000
vt 0.622183 0.000000
vt 0.660978 0.007717
vt 0.697521 0.022854
vt 0.730410 0.044829
vt 0.758379 0.072798
vt 0.780354 0.105687
vt 0.795491 0.142230
vt 0.803208 0.181025
vt 0.803208 0.220579
vt 0.795491 0.259374
vt 0.780354 0.295917
vt 0.758379 0.328806
vt 0.730410 0.356775
vt 0.697521 0.378750
vt 0.660977 0.393887
vt 0.622183 0.401604
vt 0.582628 0.401604
vt 0.543834 0.393887
vt 0.507290 0.378750
vt 0.474402 0.356775
vn 0.098017 0.000000 -0.995185
vn 0.290285 0.000000 -0.956940
vn 0.471397 0.000000 -0.881921
vn 0.634393 0.000000 -0.773010
vn 0.773010 0.000000 -0.634393
vn 0.881921 0.000000 -0.471397
vn 0.956940 0.000000 -0.290285
vn 0.995185 0.000000 -0.098017
vn 0.995185 0.000000 0.098017
vn 0.956940 0.000000 0.290285
vn 0.881921 0.000000 0.471396
vn 0.773010 0.000000 0.634393
vn 0.634393 0.000000 0.773010
vn 0.471397 0.000000 0.881921
vn 0.290284 0.000000 0.956940
vn 0.098017 0.000000 0.995185
vn -0.098018 0.000000 0.995185
vn -0.290285 0.000000 0.956940
vn -0.471397 0.000000 0.881921
vn -0.634394 0.000000 0.773010
vn -0.773011 0.000000 0.634393
vn -0.881922 0.000000 0.471396
vn -0.956941 0.000000 0.290284
vn -0.995185 0.000000 0.098016
vn -0.995185 -0.000000 -0.098018
vn -0.956940 -0.000000 -0.290286
vn -0.881921 -0.000000 -0.471398
vn -0.773010 -0.000000 -0.634394
vn -0.634392 -0.000000 -0.773011
vn -0.471395 -0.000000 -0.881922
vn -0.000000 1.000000 0.000000
vn -0.098017 -0.000000 -0.995185
vn -0.290283 -0.000000 -0.956941
vn 0.000000 -1.000000 -0.000000
s off
f 1/1/1 2/2/1 4/3/1
f 3/4/2 4/3/2 6/5/2
f 5/6/3 6/5/3 8/7/3
f 7/8/4 8/7/4 10/9/4
f 9/10/5 10/9/5 12/11/5
f 11/12/6 12/13/6 14/14/6
f 13/15/7 14/14/7 16/16/7
f 15/17/8 16/16/8 18/18/8
f 17/19/9 18/18/9 20/20/9
f 19/21/10 20/20/10 22/22/10
f 21/23/11 22/22/11 24/24/11
f 23/25/12 24/24/12 26/26/12
f 25/27/13 26/28/13 28/29/13
f 27/30/14 28/29/14 30/31/14
f 29/32/15 30/31/15 32/33/15
f 31/34/16 32/33/16 34/35/16
f 33/36/17 34/35/17 35/37/17
f 35/37/18 36/38/18 37/39/18
f 37/39/19 38/40/19 39/41/19
f 39/41/20 40/42/20 41/43/20
f 41/44/21 42/45/21 43/46/21
f 43/46/22 44/47/22 45/48/22
f 45/48/23 46/49/23 47/50/23
f 47/50/24 48/51/24 49/52/24
f 49/52/25 50/53/25 51/54/25
f 51/54/26 52/55/26 53/56/26
f 53/56/27 54/57/27 55/58/27
f 55/58/28 56/59/28 57/60/28
f 57/61/29 58/62/29 59/63/29
f 59/63/30 60/64/30 61/65/30
f 4/66/31 2/67/31 6/68/31
f 63/69/32 64/70/32 1/1/32
f 61/65/33 62/71/33 63/69/33
f 1/72/34 3/73/34 63/74/34
f 3/4/1 1/1/1 4/3/1
f 5/6/2 3/4/2 6/5/2
f 7/8/3 5/6/3 8/7/3
f 9/10/4 7/8/4 10/9/4
f 11/75/5 9/10/5 12/11/5
f 13/15/6 11/12/6 14/14/6
f 15/17/7 13/15/7 16/16/7
f 17/19/8 15/17/8 18/18/8
f 19/21/9 17/19/9 20/20/9
f 21/23/10 19/21/10 22/22/10
f 23/25/11 21/23/11 24/24/11
f 25/76/12 23/25/12 26/26/12
f 27/30/13 25/27/13 28/29/13
f 29/32/14 27/30/14 30/31/14
f 31/34/15 29/32/15 32/33/15
f 33/36/16 31/34/16 34/35/16
f 34/35/17 36/38/17 35/37/17
f 36/38/18 38/40/18 37/39/18
f 38/40/19 40/42/19 39/41/19
f 40/42/20 42/77/20 41/43/20
f 42/45/21 44/47/21 43/46/21
f 44/47/22 46/49/22 45/48/22
f 46/49/23 48/51/23 47/50/23
f 48/51/24 50/53/24 49/52/24
f 50/53/25 52/55/25 51/54/25
f 52/55/26 54/57/26 53/56/26
f 54/57/27 56/59/27 55/58/27
f 56/59/28 58/78/28 57/60/28
f 58/62/29 60/64/29 59/63/29
f 60/64/30 62/71/30 61/65/30
f 2/67/31 64/79/31 6/68/31
f 64/79/31 62/80/31 6/68/31
f 62/80/31 60/81/31 6/68/31
f 60/81/31 58/82/31 6/68/31
f 58/82/31 56/83/31 6/68/31
f 56/83/31 54/84/31 6/68/31
f 54/84/31 52/85/31 6/68/31
f 52/85/31 50/86/31 6/68/31
f 50/86/31 48/87/31 6/68/31
f 48/87/31 46/88/31 6/68/31
f 46/88/31 44/89/31 6/68/31
f 44/89/31 42/90/31 6/68/31
f 42/90/31 40/91/31 6/68/31
f 40/91/31 38/92/31 6/68/31
f 38/92/31 36/93/31 6/68/31
f 36/93/31 34/94/31 6/68/31
f 34/94/31 32/95/31 6/68/31
f 32/95/31 30/96/31 6/68/31
f 30/96/31 28/97/31 6/68/31
f 28/97/31 26/98/31 6/68/31
f 26/98/31 24/99/31 6/68/31
f 24/99/31 22/100/31 6/68/31
f 22/100/31 20/101/31 6/68/31
f 20/101/31 18/102/31 6/68/31
f 18/102/31 16/103/31 6/68/31
f 16/103/31 14/104/31 6/68/31
f 14/104/31 12/105/31 6/68/31
f 12/105/31 10/106/31 8/107/31
f 6/68/31 12/105/31 8/107/31
f 64/70/32 2/2/32 1/1/32
f 62/71/33 64/70/33 63/69/33
f 3/73/34 5/93/34 63/74/34
f 5/93/34 7/92/34 63/74/34
f 7/92/34 9/108/34 63/74/34
f 9/108/34 11/109/34 63/74/34
f 11/109/34 13/110/34 63/74/34
f 13/110/34 15/111/34 63/74/34
f 15/111/34 17/112/34 63/74/34
f 17/112/34 19/113/34 63/74/34
f 19/113/34 21/114/34 63/74/34
f 21/114/34 23/115/34 63/74/34
f 23/115/34 25/116/34 63/74/34
f 25/116/34 27/117/34 63/74/34
f 27/117/34 29/118/34 63/74/34
f 29/118/34 31/119/34 63/74/34
f 31/119/34 33/120/34 63/74/34
f 33/120/34 35/121/34 63/74/34
f 35/121/34 37/122/34 63/74/34
f 37/122/34 39/123/34 63/74/34
f 39/123/34 41/124/34 63/74/34
f 41/124/34 43/125/34 63/74/34
f 43/125/34 45/126/34 63/74/34
f 45/126/34 47/127/34 63/74/34
f 47/127/34 49/128/34 63/74/34
f 49/128/34 51/129/34 63/74/34
f 51/129/34 53/130/34 63/74/34
f 53/130/34 55/131/34 63/74/34
f 55/131/34 57/132/34 63/74/34
f 57/132/34 59/133/34 61/134/34
f 63/74/34 57/132/34 61/134/34
