# Blender v2.67 (sub 1) OBJ File: ''
# www.blender.org
o Cube
v 0.500000 -0.145952 0.500000
v -0.500000 -0.145952 0.500000
v 0.500000 0.145952 0.500000
v -0.500000 0.145952 0.500000
v 0.000000 -0.145952 -0.500000
v 0.000000 -0.145952 0.280619
v 0.000000 0.145952 -0.500000
v -0.000000 0.145952 0.280619
vt 0.000207 0.536348
vt 0.167551 0.201337
vt 0.429161 0.214374
vt 0.995492 0.724766
vt 0.855459 0.724336
vt 0.996036 0.547403
vt 0.160988 0.013667
vt 0.697333 0.012022
vt 0.697763 0.152054
vt 0.858116 0.536348
vt 0.690771 0.201337
vt 0.858322 0.000000
vt 0.994688 0.986700
vt 0.854656 0.986270
vt 0.000000 0.000000
vt 0.858322 0.000430
vt 0.998355 0.000000
vt 0.859967 0.536775
vt 0.856003 0.546973
vt 0.161417 0.153700
vt 1.000000 0.536346
vn 0.000000 -1.000000 0.000000
vn 0.401789 -0.000000 0.915732
vn 0.894427 0.000000 -0.447214
vn 0.000000 1.000000 0.000000
vn -0.401789 -0.000001 0.915732
vn -0.894427 0.000000 -0.447214
vn 0.401788 0.000000 0.915733
vn 0.894427 0.000001 -0.447213
vn -0.894427 -0.000001 -0.447214
s off
f 5/1/1 6/2/1 2/3/1
f 6/4/2 8/5/2 2/6/2
f 1/7/3 5/8/3 7/9/3
f 7/10/4 8/11/4 3/12/4
f 1/13/5 3/14/5 8/5/5
f 1/15/1 6/2/1 5/1/1
f 8/11/4 7/10/4 4/3/4
f 7/16/6 5/17/6 4/18/6
f 8/5/7 4/19/7 2/6/7
f 3/20/8 1/7/8 7/9/8
f 6/4/5 1/13/5 8/5/5
f 5/17/9 2/21/9 4/18/9
