# Blender v2.68 (sub 0) OBJ File: 'mine.blend'
# www.blender.org
o Icosphere.002
v 2.426705 -4.086514 6.202254
v 6.920671 -4.163070 -0.103825
v 1.137162 -5.970958 0.242754
v -3.140304 -4.834692 -3.016802
v -4.006979 -4.987906 4.115269
v 1.137162 -5.970958 0.242754
v -4.006979 -4.987906 4.115269
v 2.426705 -4.086514 6.202254
v 1.137162 -5.970958 0.242754
v 2.786695 -2.941480 -5.195955
v -3.140304 -4.834692 -3.016802
v 1.137162 -5.970958 0.242754
v 6.920671 -4.163070 -0.103825
v 2.786695 -2.941480 -5.195955
v 1.137162 -5.970958 0.242754
v 13.628149 -0.454250 -0.442723
v 4.441747 0.184112 -8.864557
v 12.500007 -2.086290 -0.705396
v 4.441747 0.184112 -8.864557
v -9.710735 -0.741609 -7.873666
v -7.234210 -2.777233 -6.751367
v -9.710735 -0.741609 -7.873666
v -10.924398 -1.502829 10.336437
v -8.500807 -3.291611 8.020221
v -10.924398 -1.502829 10.336437
v 4.378387 -0.551400 11.916290
v -8.500807 -3.291611 8.020221
v 4.378387 -0.551400 11.916290
v 13.628149 -0.454250 -0.442723
v 4.156683 -2.319885 9.883715
v 15.793723 -0.395008 -0.069313
v 5.108165 0.411716 -9.976995
v 13.628149 -0.454250 -0.442723
v 5.108165 0.411716 -9.976995
v -12.277422 -0.395008 -9.190039
v -9.710735 -0.741609 -7.873666
v -12.277422 -0.395008 -9.190039
v -13.551705 -1.410314 13.195372
v -10.924398 -1.502829 10.336437
v -13.551705 -1.410314 13.195372
v 5.071336 -0.395008 14.688457
v -10.924398 -1.502829 10.336437
v 5.071336 -0.395008 14.688457
v 15.793723 -0.395008 -0.069313
v 4.378387 -0.551400 11.916290
v -4.006979 -4.987906 4.115269
v -6.393926 -3.235976 5.945436
v 2.426705 -4.086514 6.202254
v 10.229872 -1.948297 -0.427036
v 3.296001 -1.622291 -6.513203
v 6.920671 -4.163070 -0.103825
v -1.849554 -16.657890 7.043004
v 0.400237 -24.595072 -0.896689
v 7.670870 -10.635256 5.719090
v -5.144184 -2.976676 -4.877600
v -6.393926 -3.235976 5.945436
v -4.006979 -4.987906 4.115269
v 7.376603 -12.084075 -13.215498
v -12.204314 -9.310165 -5.945522
v -12.034418 -5.939707 -12.007437
v -7.573437 -1.249182 -22.745447
v -12.034418 -5.939707 -12.007437
v -10.436063 -2.157310 -14.424046
v 3.158667 -2.295973 7.974473
v 10.229872 -1.948297 -0.427036
v 6.920671 -4.163070 -0.103825
v 3.296001 -1.622291 -6.513203
v -5.144184 -2.976676 -4.877600
v 2.786695 -2.941480 -5.195955
v -12.745213 -17.732895 -0.900998
v -12.204314 -9.310165 -5.945522
v 0.400237 -24.595072 -0.896689
v 0.506895 -11.332088 10.864809
v -1.849554 -16.657890 7.043004
v 7.670870 -10.635256 5.719090
v 0.400237 -24.595072 -0.896689
v -12.204314 -9.310165 -5.945522
v 7.376603 -12.084075 -13.215498
v 7.670870 -10.635256 5.719090
v 0.400237 -24.595072 -0.896689
v 7.741314 -8.133577 -7.347405
v 0.400237 -24.595072 -0.896689
v 7.376603 -12.084075 -13.215498
v 7.741314 -8.133577 -7.347405
v -1.849554 -16.657890 7.043004
v 0.506895 -11.332088 10.864809
v -11.934510 -5.335066 7.365980
v 16.370253 -1.291122 12.110898
v 13.300756 -5.317321 8.481120
v 14.846317 -4.356135 -0.389802
v 13.300756 -5.317321 8.481120
v 16.370253 -1.291122 12.110898
v 7.137434 -6.446877 17.705595
v 0.506895 -11.332088 10.864809
v 3.464440 -13.594101 10.576891
v 7.137434 -6.446877 17.705595
v 12.500007 -2.086290 -0.705396
v 4.261293 -1.596975 -8.113946
v 10.229872 -1.948297 -0.427036
v 4.261293 -1.596975 -8.113946
v -7.234210 -2.777233 -6.751367
v 3.296001 -1.622291 -6.513203
v -7.234210 -2.777233 -6.751367
v -8.500807 -3.291611 8.020221
v -6.393926 -3.235976 5.945436
v -6.393926 -3.235976 5.945436
v -8.500807 -3.291611 8.020221
v 3.158667 -2.295973 7.974473
v 4.156683 -2.319885 9.883715
v 12.500007 -2.086290 -0.705396
v 10.229872 -1.948297 -0.427036
v 10.495214 -0.265105 -12.649236
v 10.495063 -0.265086 -12.649160
v 15.793723 -0.395008 -0.069313
v -7.573437 -1.249182 -22.745447
v -10.436063 -2.157310 -14.424046
v -12.277422 -0.395008 -9.190039
v -19.780132 -4.741378 -1.654769
v -13.551705 -1.410314 13.195372
v -12.277422 -0.395008 -9.190039
v -1.408386 -6.131592 19.468723
v 5.071336 -0.395008 14.688457
v -13.551705 -1.410314 13.195372
v 16.370253 -1.291122 12.110898
v 15.793723 -0.395008 -0.069313
v 5.071336 -0.395008 14.688457
v 10.495214 -0.265105 -12.649236
v -7.573437 -1.249182 -22.745447
v 10.495063 -0.265086 -12.649160
v -12.034418 -5.939707 -12.007437
v -19.780132 -4.741378 -1.654769
v -12.277422 -0.395008 -9.190039
v -19.780132 -4.741378 -1.654769
v -11.934510 -5.335066 7.365980
v -13.551705 -1.410314 13.195372
v -1.408386 -6.131592 19.468723
v 7.137434 -6.446877 17.705595
v 5.071336 -0.395008 14.688457
v 16.370253 -1.291122 12.110898
v 14.846317 -4.356135 -0.389802
v 15.793723 -0.395008 -0.069313
v 7.741314 -8.133577 -7.347405
v 7.376603 -12.084075 -13.215498
v 10.495214 -0.265105 -12.649236
v -12.204314 -9.310165 -5.945522
v -12.745213 -17.732895 -0.900998
v -19.780132 -4.741378 -1.654769
v -19.780132 -4.741378 -1.654769
v -12.745213 -17.732895 -0.900998
v -11.934510 -5.335066 7.365980
v 10.430013 -9.002963 -2.271060
v 7.741314 -8.133577 -7.347405
v 14.846317 -4.356135 -0.389802
v 7.670870 -10.635256 5.719090
v 13.300756 -5.317321 8.481120
v 7.137434 -6.446877 17.705595
v 13.300756 -5.317321 8.481120
v 7.670870 -10.635256 5.719090
v 10.430013 -9.002963 -2.271060
v 7.376603 -12.084075 -13.215498
v -7.573437 -1.249182 -22.745447
v 10.495214 -0.265105 -12.649236
v 7.670870 -10.635256 5.719090
v 7.741314 -8.133577 -7.347405
v 10.430013 -9.002963 -2.271060
v 3.464440 -13.594101 10.576891
v 0.506895 -11.332088 10.864809
v 7.670870 -10.635256 5.719090
v 0.506895 -11.332088 10.864809
v -1.408386 -6.131592 19.468723
v -11.934510 -5.335066 7.365980
v 5.108165 0.411716 -9.976995
v -7.573437 -1.249182 -22.745447
v -12.277422 -0.395008 -9.190039
v 7.137434 -6.446877 17.705595
v 16.370253 -1.291122 12.110898
v 5.071336 -0.395008 14.688457
v -1.849554 -16.657890 7.043004
v -12.745213 -17.732895 -0.900998
v 0.400237 -24.595072 -0.896689
v -1.408386 -6.131592 19.468723
v 0.506895 -11.332088 10.864809
v 7.137434 -6.446877 17.705595
v 14.846317 -4.356135 -0.389802
v 10.495214 -0.265105 -12.649236
v 15.793723 -0.395008 -0.069313
v -12.034418 -5.939707 -12.007437
v -12.204314 -9.310165 -5.945522
v -19.780132 -4.741378 -1.654769
v -12.745213 -17.732895 -0.900998
v -1.849554 -16.657890 7.043004
v -11.934510 -5.335066 7.365980
v 4.441747 0.184112 -8.864557
v 4.261293 -1.596975 -8.113946
v 12.500007 -2.086290 -0.705396
v 4.261293 -1.596975 -8.113946
v 4.441747 0.184112 -8.864557
v -7.234210 -2.777233 -6.751367
v -7.234210 -2.777233 -6.751367
v -9.710735 -0.741609 -7.873666
v -8.500807 -3.291611 8.020221
v 4.378387 -0.551400 11.916290
v 4.156683 -2.319885 9.883715
v -8.500807 -3.291611 8.020221
v 13.628149 -0.454250 -0.442723
v 12.500007 -2.086290 -0.705396
v 4.156683 -2.319885 9.883715
v 5.108165 0.411716 -9.976995
v 4.441747 0.184112 -8.864557
v 13.628149 -0.454250 -0.442723
v 4.441747 0.184112 -8.864557
v 5.108165 0.411716 -9.976995
v -9.710735 -0.741609 -7.873666
v -9.710735 -0.741609 -7.873666
v -12.277422 -0.395008 -9.190039
v -10.924398 -1.502829 10.336437
v 5.071336 -0.395008 14.688457
v 4.378387 -0.551400 11.916290
v -10.924398 -1.502829 10.336437
v 15.793723 -0.395008 -0.069313
v 13.628149 -0.454250 -0.442723
v 4.378387 -0.551400 11.916290
v -8.500807 -3.291611 8.020221
v 4.156683 -2.319885 9.883715
v 3.158667 -2.295973 7.974473
v 3.296001 -1.622291 -6.513203
v 2.786695 -2.941480 -5.195955
v 6.920671 -4.163070 -0.103825
v -3.140304 -4.834692 -3.016802
v -5.144184 -2.976676 -4.877600
v -4.006979 -4.987906 4.115269
v -7.573437 -1.249182 -22.745447
v 7.376603 -12.084075 -13.215498
v -12.034418 -5.939707 -12.007437
v 2.426705 -4.086514 6.202254
v 3.158667 -2.295973 7.974473
v 6.920671 -4.163070 -0.103825
v -5.144184 -2.976676 -4.877600
v -3.140304 -4.834692 -3.016802
v 2.786695 -2.941480 -5.195955
v 13.300756 -5.317321 8.481120
v 10.430013 -9.002963 -2.271060
v 14.846317 -4.356135 -0.389802
v 4.261293 -1.596975 -8.113946
v 3.296001 -1.622291 -6.513203
v 10.229872 -1.948297 -0.427036
v -5.144184 -2.976676 -4.877600
v -7.234210 -2.777233 -6.751367
v -6.393926 -3.235976 5.945436
v -7.234210 -2.777233 -6.751367
v -5.144184 -2.976676 -4.877600
v 3.296001 -1.622291 -6.513203
v 3.158667 -2.295973 7.974473
v 4.156683 -2.319885 9.883715
v 10.229872 -1.948297 -0.427036
v 10.495063 -0.265086 -12.649160
v 5.108165 0.411716 -9.976995
v 15.793723 -0.395008 -0.069313
v -7.573437 -1.249182 -22.745447
v 5.108165 0.411716 -9.976995
v 10.495063 -0.265086 -12.649160
v -10.436063 -2.157310 -14.424046
v -12.034418 -5.939707 -12.007437
v -12.277422 -0.395008 -9.190039
v -11.934510 -5.335066 7.365980
v -1.408386 -6.131592 19.468723
v -13.551705 -1.410314 13.195372
v 7.741314 -8.133577 -7.347405
v 10.495214 -0.265105 -12.649236
v 14.846317 -4.356135 -0.389802
v 3.464440 -13.594101 10.576891
v 7.670870 -10.635256 5.719090
v 7.137434 -6.446877 17.705595
v -6.393926 -3.235976 5.945436
v 3.158667 -2.295973 7.974473
v 2.426705 -4.086514 6.202254
vt 0.932803 0.071736
vt 0.847011 0.127090
vt 0.855869 0.056878
vt 0.539215 0.223620
vt 0.532959 0.128886
vt 0.596675 0.183394
vt 0.600856 0.107192
vt 0.329949 0.871916
vt 0.347840 0.801025
vt 0.402945 0.846911
vt 0.403258 0.920662
vt 0.052350 0.741966
vt 0.000000 0.585630
vt 0.070016 0.723185
vt 0.044587 0.435305
vt 0.070026 0.464239
vt 0.435257 0.284985
vt 0.433132 0.043667
vt 0.471867 0.074948
vt 0.862778 0.482243
vt 0.930014 0.610780
vt 0.832921 0.515465
vt 0.854191 0.799515
vt 0.895016 0.617901
vt 0.725891 0.203026
vt 0.595342 0.325417
vt 0.701518 0.206156
vt 0.403258 0.300478
vt 0.403656 0.003952
vt 0.609241 0.000000
vt 0.601406 0.035848
vt 0.919878 0.009874
vt 0.957171 0.000000
vt 0.392472 0.971238
vt 0.307792 0.883462
vt 0.263818 0.472936
vt 0.403258 0.435423
vt 0.289296 0.619473
vt 0.503282 0.247737
vt 0.494713 0.104012
vt 0.428075 0.573718
vt 0.639344 0.749839
vt 0.563688 0.801023
vt 0.742860 0.000000
vt 0.812824 0.139759
vt 0.763668 0.111722
vt 0.961624 0.090732
vt 0.847041 0.178511
vt 0.307814 0.788410
vt 0.721651 0.662628
vt 0.646481 0.482243
vt 0.203563 0.540009
vt 0.188228 0.048642
vt 0.403122 0.000000
vt 0.240150 0.188037
vt 0.071226 0.788410
vt 0.160938 0.950621
vt 0.070896 0.976000
vt 0.164523 0.435305
vt 0.205905 0.788410
vt 0.254783 0.722234
vt 0.359508 0.735393
vt 0.127859 0.656138
vt 0.229853 0.557920
vt 0.699538 0.207626
vt 0.599856 0.298869
vt 0.672887 0.202218
vt 0.477491 0.270859
vt 0.589622 0.276990
vt 0.597811 0.085625
vt 0.610014 0.061270
vt 0.660201 0.364515
vt 0.660199 0.364514
vt 0.457606 0.482243
vt 0.434137 0.369735
vt 0.847011 0.306384
vt 0.742967 0.457933
vt 0.752478 0.187812
vt 0.832742 0.625867
vt 0.736389 0.701388
vt 0.726972 0.482243
vt 0.742860 0.042481
vt 0.930014 0.763398
vt 0.932708 0.643331
vt 1.000000 0.647888
vt 0.823371 0.709818
vt 0.000000 0.052141
vt 0.108326 0.139660
vt 0.065778 0.170697
vt 0.308550 0.204758
vt 0.181237 0.299959
vt 0.726585 0.842241
vt 0.951839 0.457933
vt 0.847011 0.367249
vt 0.951780 0.300535
vt 0.195462 0.126635
vt 0.080082 0.056384
vt 0.403258 0.435305
vt 0.070896 0.563731
vt 0.726585 0.808716
vt 0.724098 0.540127
vt 0.887923 0.193320
vt 0.025041 0.583733
vt 0.832741 0.784063
vt 0.589689 0.310077
vt 0.403258 0.842277
vt 0.385545 0.651938
vt 0.936323 0.482243
vn -0.302932 0.925554 -0.227118
vn 0.222173 0.973829 0.047918
vn -0.038554 0.955127 -0.293677
vn -0.113814 0.882211 0.456891
vn -0.249181 0.876217 0.412496
vn -0.628061 0.319980 0.709333
vn 0.027082 0.507701 0.861107
vn 0.637323 0.766983 0.074538
vn 0.012641 0.797746 -0.602862
vn -0.632115 0.617403 -0.468236
vn -0.050324 0.989587 0.134851
vn -0.030121 0.950579 0.309018
vn 0.089674 0.994704 0.050220
vn -0.048163 0.995906 -0.076489
vn -0.057625 0.997460 -0.041868
vn 0.093054 0.777075 -0.622492
vn -0.433929 0.726176 0.533266
vn 0.452483 -0.563302 0.691339
vn 0.633896 0.767976 0.091596
vn -0.292731 -0.832197 -0.470910
vn -0.932481 0.203269 -0.298598
vn -0.533078 0.735464 -0.418235
vn 0.025480 0.701413 0.712299
vn -0.252955 -0.485095 -0.837076
vn 0.487909 -0.641036 0.592468
vn -0.358507 -0.545802 -0.757346
vn 0.898851 -0.431307 -0.077731
vn 0.922935 -0.343457 0.173859
vn -0.421166 -0.398364 0.814816
vn 0.765034 -0.640816 0.063856
vn 0.599917 -0.737334 0.310546
vn -0.356713 -0.561438 0.746689
vn 0.060508 0.998167 -0.001362
vn -0.107791 0.992951 -0.049297
vn 0.008607 0.999331 0.035537
vn -0.085164 0.994570 -0.059812
vn 0.069900 0.994577 0.077016
vn 0.107247 0.993619 -0.034911
vn -0.944926 -0.016530 -0.326866
vn -0.492620 0.870169 0.011425
vn -0.094950 0.698386 0.709395
vn 0.094417 0.993166 0.068600
vn 0.040063 0.984961 -0.168069
vn -0.755692 0.270057 -0.596657
vn -0.500108 -0.776231 0.383872
vn 0.193455 0.489847 0.850074
vn 0.971790 -0.227354 -0.062725
vn 0.959184 -0.258579 0.114465
vn -0.617583 -0.374549 -0.691596
vn -0.717214 -0.353530 0.600516
vn 0.726823 -0.500231 -0.470634
vn 0.577056 -0.762655 0.292171
vn 0.664259 -0.743475 0.077497
vn 0.489542 -0.087607 -0.867568
vn 0.037048 -0.981524 -0.187720
vn -0.465520 -0.517251 -0.718152
vn -0.485789 -0.791715 0.370400
vn -0.049817 0.995548 -0.080021
vn 0.230326 0.496019 0.837206
vn -0.369490 -0.707432 0.602509
vn 0.077813 -0.845457 0.528344
vn 0.904920 -0.185442 -0.383056
vn -0.627605 -0.672826 -0.391685
vn -0.492973 -0.460141 0.738409
vn -0.612216 0.358938 0.704525
vn 0.070103 0.381361 0.921764
vn 0.611125 0.787499 0.079824
vn 0.039211 0.751714 -0.658322
vn -0.665589 0.542565 -0.512459
vn -0.075063 0.984817 0.156525
vn -0.052472 0.984063 0.169905
vn 0.109058 0.992838 0.048771
vn -0.057695 0.997457 -0.041850
vn -0.025420 0.999614 -0.011167
vn -0.084725 0.994787 0.056747
vn -0.452167 0.711568 0.537789
vn 0.629142 0.771703 0.093030
vn -0.291535 -0.826232 -0.482025
vn -0.597695 0.674016 -0.434124
vn 0.024619 0.720552 0.692963
vn 0.714069 -0.698377 0.048740
vn 0.021653 0.999349 0.028862
vn 0.066827 0.997264 0.031609
vn -0.111250 0.967503 0.227071
vn -0.021141 0.999499 0.023569
vn 0.107469 0.993592 -0.035005
vn 0.040325 0.984933 -0.168169
vn -0.915992 0.149110 -0.372458
vn 0.716486 -0.544554 -0.436015
vn 0.734683 -0.629593 0.252691
vn 0.086948 0.682617 -0.725585
s off
f 1/1/1 2/2/1 3/3/1
f 4/4/2 5/5/2 6/6/2
f 7/5/3 8/7/3 9/6/3
f 10/8/4 11/9/4 12/10/4
f 13/11/5 14/8/5 15/10/5
f 16/12/6 17/13/6 18/14/6
f 19/13/7 20/15/7 21/16/7
f 22/17/8 23/18/8 24/19/8
f 25/20/9 26/21/9 27/22/9
f 28/21/10 29/23/10 30/24/10
f 31/25/11 32/26/11 33/27/11
f 34/26/12 35/28/12 36/17/12
f 37/28/13 38/29/13 39/18/13
f 40/29/14 41/30/14 42/18/14
f 43/30/15 44/25/15 45/31/15
f 46/32/16 47/33/16 48/1/16
f 49/34/17 50/35/17 51/11/17
f 52/36/18 53/37/18 54/38/18
f 55/39/19 56/40/19 57/5/19
f 58/41/20 59/42/20 60/43/20
f 61/44/21 62/45/21 63/46/21
f 64/47/22 65/48/22 66/2/22
f 67/35/23 68/49/23 69/8/23
f 70/50/24 71/42/24 72/51/24
f 73/52/25 74/36/25 75/38/25
f 76/51/26 77/42/26 78/41/26
f 79/53/27 80/54/27 81/55/27
f 82/56/28 83/57/28 84/58/28
f 85/36/29 86/52/29 87/59/29
f 88/60/30 89/61/30 90/62/30
f 91/61/31 92/60/31 93/63/31
f 94/52/32 95/64/32 96/63/32
f 97/65/33 98/66/33 99/67/33
f 100/66/34 101/68/34 102/69/34
f 103/68/35 104/19/35 105/40/35
f 106/40/36 107/19/36 108/70/36
f 109/71/37 110/65/37 111/67/37
f 112/72/38 113/73/38 114/25/38
f 115/74/39 116/75/39 117/28/39
f 118/76/40 119/77/40 120/78/40
f 121/79/41 122/80/41 123/81/41
f 124/82/42 125/25/42 126/30/42
f 127/72/43 128/74/43 129/73/43
f 130/45/44 131/76/44 132/78/44
f 133/83/45 134/84/45 135/85/45
f 136/79/46 137/86/46 138/80/46
f 139/87/47 140/88/47 141/89/47
f 142/55/48 143/90/48 144/91/48
f 145/42/49 146/50/49 147/92/49
f 148/93/50 149/94/50 150/95/50
f 151/96/51 152/55/51 153/88/51
f 154/38/52 155/61/52 156/63/52
f 157/97/53 158/53/53 159/96/53
f 160/90/54 161/98/54 162/91/54
f 163/53/55 164/55/55 165/96/55
f 166/64/56 167/52/56 168/38/56
f 169/52/57 170/99/57 171/59/57
f 172/26/58 173/74/58 174/28/58
f 175/86/59 176/100/59 177/80/59
f 178/101/60 179/50/60 180/51/60
f 181/99/61 182/52/61 183/63/61
f 184/88/62 185/91/62 186/89/62
f 187/43/63 188/42/63 189/92/63
f 190/94/64 191/102/64 192/95/64
f 193/13/65 194/103/65 195/14/65
f 196/103/66 197/13/66 198/16/66
f 199/68/67 200/17/67 201/19/67
f 202/21/68 203/24/68 204/22/68
f 205/23/69 206/104/69 207/24/69
f 208/26/70 209/105/70 210/27/70
f 211/105/71 212/26/71 213/17/71
f 214/17/72 215/28/72 216/18/72
f 217/30/73 218/31/73 219/18/73
f 220/25/74 221/27/74 222/31/74
f 223/19/75 224/71/75 225/70/75
f 226/35/76 227/8/76 228/11/76
f 229/4/77 230/39/77 231/5/77
f 232/106/78 233/41/78 234/43/78
f 235/1/79 236/47/79 237/2/79
f 238/49/80 239/9/80 240/8/80
f 241/61/81 242/107/81 243/62/81
f 244/66/82 245/69/82 246/67/82
f 247/39/83 248/68/83 249/40/83
f 250/68/84 251/39/84 252/69/84
f 253/70/85 254/71/85 255/67/85
f 256/73/86 257/26/86 258/25/86
f 259/74/87 260/26/87 261/73/87
f 262/46/88 263/45/88 264/78/88
f 265/84/45 266/108/45 267/85/45
f 268/55/89 269/91/89 270/88/89
f 271/64/90 272/38/90 273/63/90
f 274/33/91 275/47/91 276/1/91
