# Blender v2.68 (sub 0) OBJ File: ''
# www.blender.org
o Cube_Cube.001
v -1.000000 0.121422 -1.000000
v 1.000000 0.121422 -1.000000
v -1.000000 -0.121422 -1.000000
v 1.000000 -0.121422 -1.000000
v -1.000000 0.121422 1.000000
v -1.000000 0.121422 -1.000000
v -1.000000 -0.121422 1.000000
v 1.000000 0.121422 -1.000000
v -1.000000 -0.121422 -1.000000
v 1.000000 0.121422 1.000000
v 1.000000 -0.121422 1.000000
v 1.000000 -0.121422 -1.000000
v -1.000000 0.121422 1.000000
v -1.000000 0.121422 -1.000000
v -1.000000 -0.121422 1.000000
v 1.000000 0.121422 -1.000000
v -1.000000 -0.121422 -1.000000
v 1.000000 0.121422 1.000000
v 1.000000 -0.121422 1.000000
v 1.000000 -0.121422 -1.000000
vt 0.001020 0.333333
vt 0.000000 0.001020
vt 0.333333 0.332314
vt 0.332314 0.000000
vt 0.333333 0.665647
vt 0.001020 0.666667
vt 0.000000 0.334353
vt 0.666667 0.001020
vt 0.998980 0.000000
vt 1.000000 0.332314
vt 0.332314 0.333333
vt 0.667686 0.333333
vt 0.666667 0.665647
vt 0.334353 0.666667
vt 0.665647 0.333333
vt 1.000000 0.665647
vt 0.667686 0.666667
vt 0.666667 0.334353
vt 0.334353 0.333333
vt 0.333333 0.001019
vt 0.665647 0.000000
vt 0.333333 0.334353
vt 0.998981 0.333333
vt 0.666667 0.332314
vn 0.000000 0.000000 -1.000000
vn -0.000000 -1.000000 -0.000000
vn -0.000000 1.000000 0.000000
vn -1.000000 0.000000 0.000000
vn 1.000000 -0.000000 0.000000
vn 0.000000 0.000000 1.000000
s off
f 1/1/1 2/2/1 3/3/1
f 2/2/1 4/4/1 3/3/1
f 7/5/2 9/6/2 12/7/2
f 10/8/3 8/9/3 6/10/3
f 11/11/2 7/5/2 12/7/2
f 5/12/3 10/8/3 6/10/3
f 13/13/4 14/14/4 15/15/4
f 16/16/5 18/17/5 19/18/5
f 18/19/6 13/20/6 15/21/6
f 14/14/4 17/22/4 15/15/4
f 20/23/5 16/16/5 19/18/5
f 19/24/6 18/19/6 15/21/6
